<?xml version="1.0" encoding="utf-8" standalone="no"?>
<!-- Creator: Esri ArcMap 10.3.1.4959 -->
<!DOCTYPE svg PUBLIC "-//W3C//DTD SVG 1.1//EN"  "http://www.w3.org/Graphics/SVG/1.1/DTD/svg11.dtd">
<svg width="792pt" height="612pt" viewBox="0 0 792 612" enable-background="new 0 0 792 612"
	version="1.1" xmlns="http://www.w3.org/2000/svg" xmlns:xlink="http://www.w3.org/1999/xlink" >
	<g id="Layers">
		<g id="bawah">
			<clipPath id="SVG_CP_1">
				<path d="M10.08009,603.32316L10.08009,8.63947L784.32661,8.63947L784.32661,603.32316L10.08009,603.32316z"/>
			</clipPath>
			<path clip-path="url(#SVG_CP_1)" fill="none" stroke="#000000" stroke-width="0.48" stroke-miterlimit="10" stroke-linecap="round" stroke-linejoin="round" d="
				M74.40063,119.99267L264.96223,119.99267L264.96223,141.35137L74.40063,141.35137L74.40063,119.99267"/>
			<path clip-path="url(#SVG_CP_1)" fill="none" stroke="#000000" stroke-width="0.48" stroke-miterlimit="10" stroke-linecap="round" stroke-linejoin="round" d="
				M265.20223,119.75269L337.20284,119.75269L337.20284,141.35137L265.20223,141.35137L265.20223,119.75269"/>
			<path clip-path="url(#SVG_CP_1)" fill="none" stroke="#000000" stroke-width="0.48" stroke-miterlimit="10" stroke-linecap="round" stroke-linejoin="round" d="
				M265.20223,170.86957L265.20223,140.8714L337.20284,140.8714L337.20284,185.98864L287.04242,185.98864L287.04242,170.86957L265.20223,170.86957
				"/>
			<path clip-path="url(#SVG_CP_1)" fill="none" stroke="#000000" stroke-width="0.48" stroke-miterlimit="10" stroke-linecap="round" stroke-linejoin="round" d="
				M74.40063,141.35137L219.60185,141.35137L219.60185,184.30875L74.40063,184.30875L74.40063,141.35137"/>
			<path clip-path="url(#SVG_CP_1)" fill="none" stroke="#000000" stroke-width="0.48" stroke-miterlimit="10" stroke-linecap="round" stroke-linejoin="round" d="
				M230.16194,146.39106L254.64214,146.39106L254.64214,165.82988L230.16194,165.82988L230.16194,146.39106"/>
			<path clip-path="url(#SVG_CP_1)" fill="none" stroke="#000000" stroke-width="0.48" stroke-miterlimit="10" stroke-linecap="round" stroke-linejoin="round" d="
				M30.72026,119.99267L63.12053,119.99267L63.12053,146.15108L30.72026,146.15108L30.72026,119.99267"/>
			<path clip-path="url(#SVG_CP_1)" fill="none" stroke="#000000" stroke-width="0.48" stroke-miterlimit="10" stroke-linecap="round" stroke-linejoin="round" d="
				M34.08029,399.33562L185.76156,399.33562L185.76156,551.24634L34.08029,551.24634L34.08029,399.33562"/>
			<path clip-path="url(#SVG_CP_1)" fill="none" stroke="#000000" stroke-width="0.48" stroke-miterlimit="10" stroke-linecap="round" stroke-linejoin="round" d="
				M350.88296,399.09563L389.04328,399.09563L389.04328,474.45103L350.88296,474.45103L350.88296,399.09563"/>
			<path clip-path="url(#SVG_CP_1)" fill="none" stroke="#000000" stroke-width="0.48" stroke-miterlimit="10" stroke-linecap="round" stroke-linejoin="round" d="
				M389.04328,488.85015L426.9636,488.85015L426.9636,551.00636L389.04328,551.00636L389.04328,488.85015"/>
			<path clip-path="url(#SVG_CP_1)" fill="none" stroke="#000000" stroke-width="0.48" stroke-miterlimit="10" stroke-linecap="round" stroke-linejoin="round" d="
				M389.04328,399.09563L427.2036,399.09563L427.2036,474.45103L389.04328,474.45103L389.04328,399.09563"/>
			<path clip-path="url(#SVG_CP_1)" fill="none" stroke="#000000" stroke-width="0.48" stroke-miterlimit="10" stroke-linecap="round" stroke-linejoin="round" d="
				M426.9636,399.09563L465.12392,399.09563L465.12392,474.45103L426.9636,474.45103L426.9636,399.09563"/>
			<path clip-path="url(#SVG_CP_1)" fill="none" stroke="#000000" stroke-width="0.48" stroke-miterlimit="10" stroke-linecap="round" stroke-linejoin="round" d="
				M351.12296,488.85015L389.04328,488.85015L389.04328,551.00636L351.12296,551.00636L351.12296,488.85015"/>
			<path clip-path="url(#SVG_CP_1)" fill="none" stroke="#000000" stroke-width="0.48" stroke-miterlimit="10" stroke-linecap="round" stroke-linejoin="round" d="
				M426.9636,488.85015L465.12392,488.85015L465.12392,551.00636L426.9636,551.00636L426.9636,488.85015"/>
			<path clip-path="url(#SVG_CP_1)" fill="none" stroke="#000000" stroke-width="0.48" stroke-miterlimit="10" stroke-linecap="round" stroke-linejoin="round" d="
				M503.28424,474.45103L503.28424,488.85015L350.88296,488.85015L350.88296,474.45103L503.28424,474.45103"/>
			<path clip-path="url(#SVG_CP_1)" fill="none" stroke="#000000" stroke-width="0.48" stroke-miterlimit="10" stroke-linecap="round" stroke-linejoin="round" d="
				M503.28424,461.01185L503.28424,474.45103L465.12392,474.45103L465.12392,461.01185L503.28424,461.01185"/>
			<path clip-path="url(#SVG_CP_1)" fill="none" stroke="#000000" stroke-width="0.48" stroke-miterlimit="10" stroke-linecap="round" stroke-linejoin="round" d="
				M484.08408,399.09563L503.28424,399.09563L503.28424,461.01185L484.08408,461.01185L484.08408,399.09563"/>
			<path clip-path="url(#SVG_CP_1)" fill="none" stroke="#000000" stroke-width="0.48" stroke-miterlimit="10" stroke-linecap="round" stroke-linejoin="round" d="
				M193.44163,399.33562L345.12291,399.33562L345.12291,551.24634L193.44163,551.24634L193.44163,399.33562"/>
			<path clip-path="url(#SVG_CP_1)" fill="none" stroke="#000000" stroke-width="0.48" stroke-miterlimit="10" stroke-linecap="round" stroke-linejoin="round" d="
				M465.12392,399.09563L484.08408,399.09563L484.08408,426.45396L465.12392,426.45396L465.12392,399.09563"/>
			<path clip-path="url(#SVG_CP_1)" fill="none" stroke="#000000" stroke-width="0.48" stroke-miterlimit="10" stroke-linecap="round" stroke-linejoin="round" d="
				M465.12392,447.57267L484.08408,447.57267L484.08408,461.01185L465.12392,461.01185L465.12392,447.57267"/>
			<path clip-path="url(#SVG_CP_1)" fill="none" stroke="#000000" stroke-width="0.48" stroke-miterlimit="10" stroke-linecap="round" stroke-linejoin="round" d="
				M465.12392,426.45396L484.08408,426.45396L484.08408,447.57267L465.12392,447.57267L465.12392,426.45396"/>
			<path clip-path="url(#SVG_CP_1)" fill="none" stroke="#000000" stroke-width="0.48" stroke-miterlimit="10" stroke-linecap="round" stroke-linejoin="round" d="
				M489.84413,505.40914L490.08413,505.40914L490.32413,505.40914L490.56413,505.40914L490.80413,505.64913L491.04414,505.64913
				L491.28414,505.64913L491.52414,505.64913L491.76414,505.64913L492.00414,505.64913L492.24415,505.64913L492.24415,505.88911
				L492.48415,505.88911L492.72415,505.88911L492.96415,505.88911L492.96415,506.1291L493.20415,506.1291L493.44416,506.1291L493.68416,506.36908
				L493.92416,506.36908L494.16416,506.36908L494.16416,506.60907L494.40416,506.60907L494.64417,506.84905L494.88417,506.84905
				L494.88417,507.08904L495.12417,507.08904L495.36417,507.08904L495.36417,507.32902L495.60417,507.32902L495.60417,507.56901
				L495.84418,507.56901L496.08418,507.80899L496.32418,507.80899L496.32418,508.04898L496.56418,508.04898L496.56418,508.28896
				L496.80418,508.28896L496.80418,508.52895L497.04419,508.52895L497.04419,508.76894L497.28419,509.00892L497.28419,509.24891
				L497.52419,509.24891L497.52419,509.48889L497.76419,509.48889L497.76419,509.72888L498.00419,509.96886L498.00419,510.20885
				L498.2442,510.20885L498.2442,510.44883L498.2442,510.68882L498.4842,510.68882L498.4842,510.9288L498.4842,511.16879L498.7242,511.16879
				L498.7242,511.40877L498.7242,511.64876L498.7242,511.88875L498.9642,511.88875L498.9642,512.12873L498.9642,512.36872L498.9642,512.6087
				L499.2042,512.6087L499.2042,512.84869L499.2042,513.08867L499.2042,513.32866L499.2042,513.56864L499.2042,513.80863L499.44421,513.80863
				L499.44421,514.04861L499.44421,514.2886L499.44421,514.52858L499.44421,514.76857L499.44421,515.00855L499.44421,515.24854L
				499.44421,515.48853L499.44421,515.72851L499.44421,515.9685L499.44421,516.20848L499.2042,516.20848L499.2042,516.44847L499.2042,516.68845
				L499.2042,516.92844L499.2042,517.16842L499.2042,517.40841L498.9642,517.40841L498.9642,517.64839L498.9642,517.88838L498.9642,518.12836
				L498.7242,518.36835L498.7242,518.60833L498.7242,518.84832L498.4842,518.84832L498.4842,519.08831L498.4842,519.32829L498.2442,519.32829
				L498.2442,519.56828L498.2442,519.80826L498.00419,519.80826L498.00419,520.04825L497.76419,520.28823L497.76419,520.52822L497.52419,520.52822
				L497.52419,520.7682L497.28419,520.7682L497.28419,521.00819L497.04419,521.24817L497.04419,521.48816L496.80418,521.48816L496.80418,521.72814
				L496.56418,521.72814L496.56418,521.96813L496.32418,521.96813L496.32418,522.20812L496.08418,522.20812L496.08418,522.4481L
				495.84418,522.4481L495.60417,522.68809L495.36417,522.68809L495.36417,522.92807L495.12417,522.92807L495.12417,523.16806L494.88417,523.16806
				L494.64417,523.16806L494.64417,523.40804L494.40416,523.40804L494.16416,523.40804L494.16416,523.64803L493.92416,523.64803
				L493.68416,523.64803L493.68416,523.88801L493.44416,523.88801L493.20415,523.88801L492.96415,523.88801L492.96415,524.128L492.72415,524.128
				L492.48415,524.128L492.24415,524.128L492.24415,524.36798L492.00414,524.36798L491.76414,524.36798L491.52414,524.36798L491.28414,524.36798
				L491.04414,524.36798L491.04414,524.60797L490.80413,524.60797L490.56413,524.60797L490.32413,524.60797L490.08413,524.60797
				L489.84413,524.60797L489.60412,524.60797L489.36412,524.60797L489.12412,524.60797L488.88412,524.60797L488.64412,524.60797
				L488.64412,524.36798L488.40411,524.36798L488.16411,524.36798L487.92411,524.36798L487.68411,524.36798L487.44411,524.36798
				L487.44411,524.128L487.2041,524.128L486.9641,524.128L486.7241,524.128L486.7241,523.88801L486.4841,523.88801L486.2441,523.88801
				L486.00409,523.88801L486.00409,523.64803L485.76409,523.64803L485.52409,523.64803L485.52409,523.40804L485.28409,523.40804
				L485.04409,523.40804L485.04409,523.16806L484.80408,523.16806L484.56408,522.92807L484.32408,522.92807L484.32408,522.68809
				L484.08408,522.68809L484.08408,522.4481L483.84408,522.4481L483.60407,522.20812L483.36407,521.96813L483.12407,521.96813L483.12407,521.72814
				L482.88407,521.72814L482.88407,521.48816L482.64407,521.24817L482.64407,521.00819L482.40406,521.00819L482.40406,520.7682L
				482.16406,520.7682L482.16406,520.52822L481.92406,520.52822L481.92406,520.28823L481.92406,520.04825L481.68406,520.04825L481.68406,519.80826
				L481.44405,519.56828L481.44405,519.32829L481.20405,519.32829L481.20405,519.08831L481.20405,518.84832L480.96405,518.60833
				L480.96405,518.36835L480.96405,518.12836L480.72405,518.12836L480.72405,517.88838L480.72405,517.64839L480.72405,517.40841
				L480.48405,517.16842L480.48405,516.92844L480.48405,516.68845L480.48405,516.44847L480.48405,516.20848L480.48405,515.9685L
				480.48405,515.72851L480.24404,515.72851L480.24404,515.48853L480.24404,515.24854L480.24404,515.00855L480.24404,514.76857L
				480.24404,514.52858L480.24404,514.2886L480.48405,514.2886L480.48405,514.04861L480.48405,513.80863L480.48405,513.56864L480.48405,513.32866
				L480.48405,513.08867L480.48405,512.84869L480.72405,512.84869L480.72405,512.6087L480.72405,512.36872L480.72405,512.12873L
				480.72405,511.88875L480.96405,511.88875L480.96405,511.64876L480.96405,511.40877L481.20405,511.40877L481.20405,511.16879L
				481.20405,510.9288L481.44405,510.68882L481.44405,510.44883L481.68406,510.44883L481.68406,510.20885L481.68406,509.96886L481.92406,509.96886
				L481.92406,509.72888L482.16406,509.48889L482.16406,509.24891L482.40406,509.24891L482.40406,509.00892L482.64407,509.00892
				L482.64407,508.76894L482.88407,508.52895L483.12407,508.28896L483.36407,508.04898L483.60407,507.80899L483.84408,507.80899
				L483.84408,507.56901L484.08408,507.56901L484.08408,507.32902L484.32408,507.32902L484.56408,507.08904L484.80408,507.08904
				L484.80408,506.84905L485.04409,506.84905L485.28409,506.84905L485.28409,506.60907L485.52409,506.60907L485.76409,506.36908
				L486.00409,506.36908L486.2441,506.36908L486.2441,506.1291L486.4841,506.1291L486.7241,506.1291L486.7241,505.88911L486.9641,505.88911
				L487.2041,505.88911L487.44411,505.88911L487.68411,505.64913L487.92411,505.64913L488.16411,505.64913L488.40411,505.64913L
				488.64412,505.64913L488.88412,505.64913L489.12412,505.64913L489.12412,505.40914L489.36412,505.40914L489.60412,505.40914L
				489.84413,505.40914"/>
			<path clip-path="url(#SVG_CP_1)" fill="none" stroke="#000000" stroke-width="0.48" stroke-miterlimit="10" stroke-linecap="round" stroke-linejoin="round" d="
				M509.28429,489.33012L750.00632,489.33012L750.00632,550.76637L509.28429,550.76637L509.28429,489.33012"/>
			<path clip-path="url(#SVG_CP_1)" fill="none" stroke="#000000" stroke-width="0.48" stroke-miterlimit="10" stroke-linecap="round" stroke-linejoin="round" d="
				M509.28429,489.33012L509.28429,470.85125L750.00632,470.85125L750.00632,489.09014L509.28429,489.33012"/>
			<path clip-path="url(#SVG_CP_1)" fill="none" stroke="#000000" stroke-width="0.48" stroke-miterlimit="10" stroke-linecap="round" stroke-linejoin="round" d="
				M509.28429,489.33012L592.56499,489.33012L592.56499,551.00636L509.28429,551.00636L509.28429,489.33012"/>
			<path clip-path="url(#SVG_CP_1)" fill="none" stroke="#000000" stroke-width="0.48" stroke-miterlimit="10" stroke-linecap="round" stroke-linejoin="round" d="
				M515.04434,405.33525L692.64583,405.33525L692.64583,463.17172L515.04434,463.17172L515.04434,405.33525"/>
			<path clip-path="url(#SVG_CP_1)" fill="none" stroke="#000000" stroke-width="0.48" stroke-miterlimit="10" stroke-linecap="round" stroke-linejoin="round" d="
				M692.64583,463.17172L692.64583,446.37275L716.16603,446.37275L716.16603,463.17172L692.64583,463.17172"/>
			<path clip-path="url(#SVG_CP_1)" fill="none" stroke="#000000" stroke-width="0.48" stroke-miterlimit="10" stroke-linecap="round" stroke-linejoin="round" d="
				M749.76631,405.33525L749.76631,441.81302L715.92603,441.81302L715.92603,405.33525L749.76631,405.33525"/>
			<path clip-path="url(#SVG_CP_1)" fill="none" stroke="#000000" stroke-width="0.48" stroke-miterlimit="10" stroke-linecap="round" stroke-linejoin="round" d="
				M715.68603,489.09014L750.00632,489.09014L750.00632,550.76637L715.68603,550.76637L715.68603,489.09014"/>
			<path clip-path="url(#SVG_CP_1)" fill="none" stroke="#000000" stroke-width="0.48" stroke-miterlimit="10" stroke-linecap="round" stroke-linejoin="round" d="
				M676.5657,489.33012L715.68603,489.33012L715.68603,550.76637L676.5657,550.76637L676.5657,489.33012"/>
			<path clip-path="url(#SVG_CP_1)" fill="none" stroke="#000000" stroke-width="0.48" stroke-miterlimit="10" stroke-linecap="round" stroke-linejoin="round" d="
				M591.60498,489.33012L676.5657,489.33012L676.5657,551.00636L591.60498,551.00636L591.60498,489.33012"/>
			<path clip-path="url(#SVG_CP_1)" fill="none" stroke="#000000" stroke-width="0.48" stroke-miterlimit="10" stroke-linecap="round" stroke-linejoin="round" d="
				M598.32504,119.75269L749.76631,119.75269L749.76631,299.26173L598.32504,299.26173L598.32504,119.75269"/>
			<path clip-path="url(#SVG_CP_1)" fill="none" stroke="#000000" stroke-width="0.48" stroke-miterlimit="10" stroke-linecap="round" stroke-linejoin="round" d="
				M598.80504,299.26173L30.96026,299.50171L30.72026,119.99267L598.56504,119.75269L598.80504,299.26173"/>
			<path clip-path="url(#SVG_CP_1)" fill="none" stroke="#000000" stroke-width="0.48" stroke-miterlimit="10" stroke-linecap="round" stroke-linejoin="round" d="
				M30.72026,146.15108L63.12053,146.15108L63.12053,172.30948L30.72026,172.30948L30.72026,146.15108"/>
			<path clip-path="url(#SVG_CP_1)" fill="none" stroke="#000000" stroke-width="0.48" stroke-miterlimit="10" stroke-linecap="round" stroke-linejoin="round" d="
				M37.20031,172.30948L55.92047,172.30948L55.92047,181.90889L37.20031,181.90889L37.20031,172.30948"/>
			<path clip-path="url(#SVG_CP_1)" fill="none" stroke="#000000" stroke-width="0.48" stroke-miterlimit="10" stroke-linecap="round" stroke-linejoin="round" d="
				M30.48026,237.34551L73.44062,237.34551L73.44062,299.50171L30.48026,299.50171L30.48026,237.34551"/>
			<path clip-path="url(#SVG_CP_1)" fill="none" stroke="#000000" stroke-width="0.48" stroke-miterlimit="10" stroke-linecap="round" stroke-linejoin="round" d="
				M73.44062,237.34551L116.40098,237.34551L116.40098,299.50171L73.44062,299.50171L73.44062,237.34551"/>
			<path clip-path="url(#SVG_CP_1)" fill="none" stroke="#000000" stroke-width="0.48" stroke-miterlimit="10" stroke-linecap="round" stroke-linejoin="round" d="
				M116.40098,237.34551L159.36134,237.34551L159.36134,299.50171L116.40098,299.50171L116.40098,237.34551"/>
			<path clip-path="url(#SVG_CP_1)" fill="none" stroke="#000000" stroke-width="0.48" stroke-miterlimit="10" stroke-linecap="round" stroke-linejoin="round" d="
				M159.36134,237.10552L202.3217,237.10552L202.3217,299.50171L159.36134,299.50171L159.36134,237.10552"/>
			<path clip-path="url(#SVG_CP_1)" fill="none" stroke="#000000" stroke-width="0.48" stroke-miterlimit="10" stroke-linecap="round" stroke-linejoin="round" d="
				M293.76247,237.34551L336.72284,237.34551L336.72284,299.7417L293.76247,299.7417L293.76247,237.34551"/>
			<path clip-path="url(#SVG_CP_1)" fill="none" stroke="#000000" stroke-width="0.48" stroke-miterlimit="10" stroke-linecap="round" stroke-linejoin="round" d="
				M250.80211,237.34551L293.76247,237.34551L293.76247,299.7417L250.80211,299.7417L250.80211,237.34551"/>
			<path clip-path="url(#SVG_CP_1)" fill="none" stroke="#000000" stroke-width="0.48" stroke-miterlimit="10" stroke-linecap="round" stroke-linejoin="round" d="
				M336.72284,237.34551L379.6832,237.34551L379.6832,299.7417L336.72284,299.7417L336.72284,237.34551"/>
			<path clip-path="url(#SVG_CP_1)" fill="none" stroke="#000000" stroke-width="0.48" stroke-miterlimit="10" stroke-linecap="round" stroke-linejoin="round" d="
				M241.20203,165.82988L241.44203,165.82988L241.68204,165.82988L241.92204,165.82988L242.16204,165.82988L242.40204,165.82988
				L242.40204,166.06986L242.64204,166.06986L242.88205,166.06986L243.12205,166.06986L243.36205,166.30985L243.60205,166.30985
				L243.84205,166.30985L243.84205,166.54983L244.08206,166.54983L244.32206,166.54983L244.32206,166.78982L244.56206,166.78982
				L244.56206,167.0298L244.80206,167.0298L244.80206,167.26979L245.04206,167.26979L245.04206,167.50977L245.28207,167.50977L245.28207,167.74976
				L245.52207,167.74976L245.52207,167.98974L245.76207,167.98974L245.76207,168.22973L246.00207,168.22973L246.00207,168.46971
				L246.00207,168.7097L246.24207,168.7097L246.24207,168.94968L246.24207,169.18967L246.48208,169.18967L246.48208,169.42966L246.48208,169.66964
				L246.48208,169.90963L246.72208,169.90963L246.72208,170.14961L246.72208,170.3896L246.72208,170.62958L246.72208,170.86957L
				246.72208,171.10955L246.72208,171.34954L246.72208,171.58952L246.72208,171.82951L246.72208,172.06949L246.72208,172.30948L
				246.72208,172.54946L246.72208,172.78945L246.48208,172.78945L246.48208,173.02944L246.48208,173.26942L246.48208,173.50941L
				246.24207,173.50941L246.24207,173.74939L246.24207,173.98938L246.00207,173.98938L246.00207,174.22936L246.00207,174.46935L
				245.76207,174.46935L245.76207,174.70933L245.52207,174.70933L245.52207,174.94932L245.28207,174.94932L245.28207,175.1893L245.04206,175.1893
				L245.04206,175.42929L244.80206,175.42929L244.80206,175.66927L244.56206,175.66927L244.56206,175.90926L244.32206,175.90926
				L244.08206,176.14925L243.84205,176.14925L243.84205,176.38923L243.60205,176.38923L243.36205,176.38923L243.36205,176.62922
				L243.12205,176.62922L242.88205,176.62922L242.64204,176.62922L242.40204,176.62922L242.40204,176.8692L242.16204,176.8692L241.92204,176.8692
				L241.68204,176.8692L241.44203,176.8692L241.20203,176.8692L240.96203,176.8692L240.72203,176.8692L240.48203,176.8692L240.24202,176.8692
				L240.00202,176.8692L240.00202,176.62922L239.76202,176.62922L239.52202,176.62922L239.28202,176.62922L239.28202,176.38923L
				239.04201,176.38923L238.80201,176.38923L238.80201,176.14925L238.56201,176.14925L238.32201,176.14925L238.32201,175.90926L
				238.08201,175.90926L237.842,175.90926L237.842,175.66927L237.602,175.66927L237.602,175.42929L237.362,175.42929L237.362,175.1893
				L237.122,175.1893L237.122,174.94932L236.882,174.94932L236.882,174.70933L236.64199,174.46935L236.64199,174.22936L236.40199,174.22936
				L236.40199,173.98938L236.40199,173.74939L236.16199,173.74939L236.16199,173.50941L236.16199,173.26942L235.92199,173.26942
				L235.92199,173.02944L235.92199,172.78945L235.92199,172.54946L235.92199,172.30948L235.68199,172.30948L235.68199,172.06949
				L235.68199,171.82951L235.68199,171.58952L235.68199,171.34954L235.68199,171.10955L235.68199,170.86957L235.68199,170.62958
				L235.68199,170.3896L235.92199,170.3896L235.92199,170.14961L235.92199,169.90963L235.92199,169.66964L235.92199,169.42966L236.16199,169.42966
				L236.16199,169.18967L236.16199,168.94968L236.40199,168.94968L236.40199,168.7097L236.40199,168.46971L236.64199,168.46971L
				236.64199,168.22973L236.882,168.22973L236.882,167.98974L236.882,167.74976L237.122,167.74976L237.122,167.50977L237.362,167.50977
				L237.362,167.26979L237.602,167.26979L237.602,167.0298L237.842,167.0298L238.08201,166.78982L238.32201,166.78982L238.32201,166.54983
				L238.56201,166.54983L238.80201,166.54983L238.80201,166.30985L239.04201,166.30985L239.28202,166.30985L239.28202,166.06986
				L239.52202,166.06986L239.76202,166.06986L240.00202,166.06986L240.00202,165.82988L240.24202,165.82988L240.48203,165.82988
				L240.72203,165.82988L240.96203,165.82988L241.20203,165.82988"/>
			<path clip-path="url(#SVG_CP_1)" fill="none" stroke="#000000" stroke-width="0.48" stroke-miterlimit="10" stroke-linecap="round" stroke-linejoin="round" d="
				M359.04302,119.75269L598.32504,119.75269L598.32504,158.15034L359.04302,158.15034L359.04302,119.75269"/>
			<path clip-path="url(#SVG_CP_1)" fill="none" stroke="#000000" stroke-width="0.48" stroke-miterlimit="10" stroke-linecap="round" stroke-linejoin="round" d="
				M431.52363,209.50721L30.72026,209.74719L30.72026,188.14851L431.52363,188.3885L431.52363,209.50721"/>
			<path clip-path="url(#SVG_CP_1)" fill="none" stroke="#000000" stroke-width="0.48" stroke-miterlimit="10" stroke-linecap="round" stroke-linejoin="round" d="
				M337.20284,149.0309L337.20284,119.75269L359.04302,119.75269L359.04302,149.0309L337.20284,149.0309"/>
			<path clip-path="url(#SVG_CP_1)" fill="none" stroke="#000000" stroke-width="0.48" stroke-miterlimit="10" stroke-linecap="round" stroke-linejoin="round" d="
				M359.04302,158.15034L359.04302,119.75269L384.24324,119.75269L384.24324,158.15034L359.04302,158.15034"/>
			<path clip-path="url(#SVG_CP_1)" fill="none" stroke="#000000" stroke-width="0.48" stroke-miterlimit="10" stroke-linecap="round" stroke-linejoin="round" d="
				M384.24324,158.15034L384.24324,119.75269L409.68345,119.75269L409.68345,158.15034L384.24324,158.15034"/>
			<path clip-path="url(#SVG_CP_1)" fill="none" stroke="#000000" stroke-width="0.48" stroke-miterlimit="10" stroke-linecap="round" stroke-linejoin="round" d="
				M598.80504,299.26173L466.08393,299.26173L466.08393,158.15034L598.56504,158.15034L598.80504,299.26173"/>
			<path clip-path="url(#SVG_CP_1)" fill="none" stroke="#000000" stroke-width="0.48" stroke-miterlimit="10" stroke-linecap="round" stroke-linejoin="round" d="
				M379.6832,237.34551L466.08393,237.34551L466.08393,299.50171L379.6832,299.50171L379.6832,237.34551"/>
		</g>
		<g id="atas">
			<path clip-path="url(#SVG_CP_1)" fill="none" stroke="#000000" stroke-width="0.48" stroke-miterlimit="10" stroke-linecap="round" stroke-linejoin="round" d="
				M74.40063,119.99267L264.96223,119.99267L264.96223,141.35137L74.40063,141.35137L74.40063,119.99267"/>
			<path clip-path="url(#SVG_CP_1)" fill="none" stroke="#000000" stroke-width="0.48" stroke-miterlimit="10" stroke-linecap="round" stroke-linejoin="round" d="
				M265.20223,119.75269L337.20284,119.75269L337.20284,141.35137L265.20223,141.35137L265.20223,119.75269"/>
			<path clip-path="url(#SVG_CP_1)" fill="none" stroke="#000000" stroke-width="0.48" stroke-miterlimit="10" stroke-linecap="round" stroke-linejoin="round" d="
				M265.20223,170.86957L265.20223,140.8714L337.20284,140.8714L337.20284,185.98864L287.04242,185.98864L287.04242,170.86957L265.20223,170.86957
				"/>
			<path clip-path="url(#SVG_CP_1)" fill="none" stroke="#000000" stroke-width="0.48" stroke-miterlimit="10" stroke-linecap="round" stroke-linejoin="round" d="
				M74.40063,141.35137L219.60185,141.35137L219.60185,184.30875L74.40063,184.30875L74.40063,141.35137"/>
			<path clip-path="url(#SVG_CP_1)" fill="none" stroke="#000000" stroke-width="0.48" stroke-miterlimit="10" stroke-linecap="round" stroke-linejoin="round" d="
				M230.16194,146.39106L254.64214,146.39106L254.64214,165.82988L230.16194,165.82988L230.16194,146.39106"/>
			<path clip-path="url(#SVG_CP_1)" fill="none" stroke="#000000" stroke-width="0.48" stroke-miterlimit="10" stroke-linecap="round" stroke-linejoin="round" d="
				M30.72026,119.99267L63.12053,119.99267L63.12053,146.15108L30.72026,146.15108L30.72026,119.99267"/>
			<path clip-path="url(#SVG_CP_1)" fill="none" stroke="#000000" stroke-width="0.48" stroke-miterlimit="10" stroke-linecap="round" stroke-linejoin="round" d="
				M34.08029,399.33562L185.76156,399.33562L185.76156,551.24634L34.08029,551.24634L34.08029,399.33562"/>
			<path clip-path="url(#SVG_CP_1)" fill="none" stroke="#000000" stroke-width="0.48" stroke-miterlimit="10" stroke-linecap="round" stroke-linejoin="round" d="
				M350.88296,399.09563L389.04328,399.09563L389.04328,474.45103L350.88296,474.45103L350.88296,399.09563"/>
			<path clip-path="url(#SVG_CP_1)" fill="none" stroke="#000000" stroke-width="0.48" stroke-miterlimit="10" stroke-linecap="round" stroke-linejoin="round" d="
				M389.04328,488.85015L426.9636,488.85015L426.9636,551.00636L389.04328,551.00636L389.04328,488.85015"/>
			<path clip-path="url(#SVG_CP_1)" fill="none" stroke="#000000" stroke-width="0.48" stroke-miterlimit="10" stroke-linecap="round" stroke-linejoin="round" d="
				M389.04328,399.09563L427.2036,399.09563L427.2036,474.45103L389.04328,474.45103L389.04328,399.09563"/>
			<path clip-path="url(#SVG_CP_1)" fill="none" stroke="#000000" stroke-width="0.48" stroke-miterlimit="10" stroke-linecap="round" stroke-linejoin="round" d="
				M426.9636,399.09563L465.12392,399.09563L465.12392,474.45103L426.9636,474.45103L426.9636,399.09563"/>
			<path clip-path="url(#SVG_CP_1)" fill="none" stroke="#000000" stroke-width="0.48" stroke-miterlimit="10" stroke-linecap="round" stroke-linejoin="round" d="
				M351.12296,488.85015L389.04328,488.85015L389.04328,551.00636L351.12296,551.00636L351.12296,488.85015"/>
			<path clip-path="url(#SVG_CP_1)" fill="none" stroke="#000000" stroke-width="0.48" stroke-miterlimit="10" stroke-linecap="round" stroke-linejoin="round" d="
				M426.9636,488.85015L465.12392,488.85015L465.12392,551.00636L426.9636,551.00636L426.9636,488.85015"/>
			<path clip-path="url(#SVG_CP_1)" fill="none" stroke="#000000" stroke-width="0.48" stroke-miterlimit="10" stroke-linecap="round" stroke-linejoin="round" d="
				M503.28424,474.45103L503.28424,488.85015L350.88296,488.85015L350.88296,474.45103L503.28424,474.45103"/>
			<path clip-path="url(#SVG_CP_1)" fill="none" stroke="#000000" stroke-width="0.48" stroke-miterlimit="10" stroke-linecap="round" stroke-linejoin="round" d="
				M503.28424,461.01185L503.28424,474.45103L465.12392,474.45103L465.12392,461.01185L503.28424,461.01185"/>
			<path clip-path="url(#SVG_CP_1)" fill="none" stroke="#000000" stroke-width="0.48" stroke-miterlimit="10" stroke-linecap="round" stroke-linejoin="round" d="
				M484.08408,399.09563L503.28424,399.09563L503.28424,461.01185L484.08408,461.01185L484.08408,399.09563"/>
			<path clip-path="url(#SVG_CP_1)" fill="none" stroke="#000000" stroke-width="0.48" stroke-miterlimit="10" stroke-linecap="round" stroke-linejoin="round" d="
				M193.44163,399.33562L345.12291,399.33562L345.12291,551.24634L193.44163,551.24634L193.44163,399.33562"/>
			<path clip-path="url(#SVG_CP_1)" fill="none" stroke="#000000" stroke-width="0.48" stroke-miterlimit="10" stroke-linecap="round" stroke-linejoin="round" d="
				M465.12392,399.09563L484.08408,399.09563L484.08408,426.45396L465.12392,426.45396L465.12392,399.09563"/>
			<path clip-path="url(#SVG_CP_1)" fill="none" stroke="#000000" stroke-width="0.48" stroke-miterlimit="10" stroke-linecap="round" stroke-linejoin="round" d="
				M465.12392,447.57267L484.08408,447.57267L484.08408,461.01185L465.12392,461.01185L465.12392,447.57267"/>
			<path clip-path="url(#SVG_CP_1)" fill="none" stroke="#000000" stroke-width="0.48" stroke-miterlimit="10" stroke-linecap="round" stroke-linejoin="round" d="
				M465.12392,426.45396L484.08408,426.45396L484.08408,447.57267L465.12392,447.57267L465.12392,426.45396"/>
			<path clip-path="url(#SVG_CP_1)" fill="none" stroke="#000000" stroke-width="0.48" stroke-miterlimit="10" stroke-linecap="round" stroke-linejoin="round" d="
				M489.84413,505.40914L490.08413,505.40914L490.32413,505.40914L490.56413,505.40914L490.80413,505.64913L491.04414,505.64913
				L491.28414,505.64913L491.52414,505.64913L491.76414,505.64913L492.00414,505.64913L492.24415,505.64913L492.24415,505.88911
				L492.48415,505.88911L492.72415,505.88911L492.96415,505.88911L492.96415,506.1291L493.20415,506.1291L493.44416,506.1291L493.68416,506.36908
				L493.92416,506.36908L494.16416,506.36908L494.16416,506.60907L494.40416,506.60907L494.64417,506.84905L494.88417,506.84905
				L494.88417,507.08904L495.12417,507.08904L495.36417,507.08904L495.36417,507.32902L495.60417,507.32902L495.60417,507.56901
				L495.84418,507.56901L496.08418,507.80899L496.32418,507.80899L496.32418,508.04898L496.56418,508.04898L496.56418,508.28896
				L496.80418,508.28896L496.80418,508.52895L497.04419,508.52895L497.04419,508.76894L497.28419,509.00892L497.28419,509.24891
				L497.52419,509.24891L497.52419,509.48889L497.76419,509.48889L497.76419,509.72888L498.00419,509.96886L498.00419,510.20885
				L498.2442,510.20885L498.2442,510.44883L498.2442,510.68882L498.4842,510.68882L498.4842,510.9288L498.4842,511.16879L498.7242,511.16879
				L498.7242,511.40877L498.7242,511.64876L498.7242,511.88875L498.9642,511.88875L498.9642,512.12873L498.9642,512.36872L498.9642,512.6087
				L499.2042,512.6087L499.2042,512.84869L499.2042,513.08867L499.2042,513.32866L499.2042,513.56864L499.2042,513.80863L499.44421,513.80863
				L499.44421,514.04861L499.44421,514.2886L499.44421,514.52858L499.44421,514.76857L499.44421,515.00855L499.44421,515.24854L
				499.44421,515.48853L499.44421,515.72851L499.44421,515.9685L499.44421,516.20848L499.2042,516.20848L499.2042,516.44847L499.2042,516.68845
				L499.2042,516.92844L499.2042,517.16842L499.2042,517.40841L498.9642,517.40841L498.9642,517.64839L498.9642,517.88838L498.9642,518.12836
				L498.7242,518.36835L498.7242,518.60833L498.7242,518.84832L498.4842,518.84832L498.4842,519.08831L498.4842,519.32829L498.2442,519.32829
				L498.2442,519.56828L498.2442,519.80826L498.00419,519.80826L498.00419,520.04825L497.76419,520.28823L497.76419,520.52822L497.52419,520.52822
				L497.52419,520.7682L497.28419,520.7682L497.28419,521.00819L497.04419,521.24817L497.04419,521.48816L496.80418,521.48816L496.80418,521.72814
				L496.56418,521.72814L496.56418,521.96813L496.32418,521.96813L496.32418,522.20812L496.08418,522.20812L496.08418,522.4481L
				495.84418,522.4481L495.60417,522.68809L495.36417,522.68809L495.36417,522.92807L495.12417,522.92807L495.12417,523.16806L494.88417,523.16806
				L494.64417,523.16806L494.64417,523.40804L494.40416,523.40804L494.16416,523.40804L494.16416,523.64803L493.92416,523.64803
				L493.68416,523.64803L493.68416,523.88801L493.44416,523.88801L493.20415,523.88801L492.96415,523.88801L492.96415,524.128L492.72415,524.128
				L492.48415,524.128L492.24415,524.128L492.24415,524.36798L492.00414,524.36798L491.76414,524.36798L491.52414,524.36798L491.28414,524.36798
				L491.04414,524.36798L491.04414,524.60797L490.80413,524.60797L490.56413,524.60797L490.32413,524.60797L490.08413,524.60797
				L489.84413,524.60797L489.60412,524.60797L489.36412,524.60797L489.12412,524.60797L488.88412,524.60797L488.64412,524.60797
				L488.64412,524.36798L488.40411,524.36798L488.16411,524.36798L487.92411,524.36798L487.68411,524.36798L487.44411,524.36798
				L487.44411,524.128L487.2041,524.128L486.9641,524.128L486.7241,524.128L486.7241,523.88801L486.4841,523.88801L486.2441,523.88801
				L486.00409,523.88801L486.00409,523.64803L485.76409,523.64803L485.52409,523.64803L485.52409,523.40804L485.28409,523.40804
				L485.04409,523.40804L485.04409,523.16806L484.80408,523.16806L484.56408,522.92807L484.32408,522.92807L484.32408,522.68809
				L484.08408,522.68809L484.08408,522.4481L483.84408,522.4481L483.60407,522.20812L483.36407,521.96813L483.12407,521.96813L483.12407,521.72814
				L482.88407,521.72814L482.88407,521.48816L482.64407,521.24817L482.64407,521.00819L482.40406,521.00819L482.40406,520.7682L
				482.16406,520.7682L482.16406,520.52822L481.92406,520.52822L481.92406,520.28823L481.92406,520.04825L481.68406,520.04825L481.68406,519.80826
				L481.44405,519.56828L481.44405,519.32829L481.20405,519.32829L481.20405,519.08831L481.20405,518.84832L480.96405,518.60833
				L480.96405,518.36835L480.96405,518.12836L480.72405,518.12836L480.72405,517.88838L480.72405,517.64839L480.72405,517.40841
				L480.48405,517.16842L480.48405,516.92844L480.48405,516.68845L480.48405,516.44847L480.48405,516.20848L480.48405,515.9685L
				480.48405,515.72851L480.24404,515.72851L480.24404,515.48853L480.24404,515.24854L480.24404,515.00855L480.24404,514.76857L
				480.24404,514.52858L480.24404,514.2886L480.48405,514.2886L480.48405,514.04861L480.48405,513.80863L480.48405,513.56864L480.48405,513.32866
				L480.48405,513.08867L480.48405,512.84869L480.72405,512.84869L480.72405,512.6087L480.72405,512.36872L480.72405,512.12873L
				480.72405,511.88875L480.96405,511.88875L480.96405,511.64876L480.96405,511.40877L481.20405,511.40877L481.20405,511.16879L
				481.20405,510.9288L481.44405,510.68882L481.44405,510.44883L481.68406,510.44883L481.68406,510.20885L481.68406,509.96886L481.92406,509.96886
				L481.92406,509.72888L482.16406,509.48889L482.16406,509.24891L482.40406,509.24891L482.40406,509.00892L482.64407,509.00892
				L482.64407,508.76894L482.88407,508.52895L483.12407,508.28896L483.36407,508.04898L483.60407,507.80899L483.84408,507.80899
				L483.84408,507.56901L484.08408,507.56901L484.08408,507.32902L484.32408,507.32902L484.56408,507.08904L484.80408,507.08904
				L484.80408,506.84905L485.04409,506.84905L485.28409,506.84905L485.28409,506.60907L485.52409,506.60907L485.76409,506.36908
				L486.00409,506.36908L486.2441,506.36908L486.2441,506.1291L486.4841,506.1291L486.7241,506.1291L486.7241,505.88911L486.9641,505.88911
				L487.2041,505.88911L487.44411,505.88911L487.68411,505.64913L487.92411,505.64913L488.16411,505.64913L488.40411,505.64913L
				488.64412,505.64913L488.88412,505.64913L489.12412,505.64913L489.12412,505.40914L489.36412,505.40914L489.60412,505.40914L
				489.84413,505.40914"/>
			<path clip-path="url(#SVG_CP_1)" fill="none" stroke="#000000" stroke-width="0.48" stroke-miterlimit="10" stroke-linecap="round" stroke-linejoin="round" d="
				M509.28429,489.33012L750.00632,489.33012L750.00632,550.76637L509.28429,550.76637L509.28429,489.33012"/>
			<path clip-path="url(#SVG_CP_1)" fill="none" stroke="#000000" stroke-width="0.48" stroke-miterlimit="10" stroke-linecap="round" stroke-linejoin="round" d="
				M509.28429,489.33012L509.28429,470.85125L750.00632,470.85125L750.00632,489.09014L509.28429,489.33012"/>
			<path clip-path="url(#SVG_CP_1)" fill="none" stroke="#000000" stroke-width="0.48" stroke-miterlimit="10" stroke-linecap="round" stroke-linejoin="round" d="
				M509.28429,489.33012L592.56499,489.33012L592.56499,551.00636L509.28429,551.00636L509.28429,489.33012"/>
			<path clip-path="url(#SVG_CP_1)" fill="none" stroke="#000000" stroke-width="0.48" stroke-miterlimit="10" stroke-linecap="round" stroke-linejoin="round" d="
				M515.04434,405.33525L692.64583,405.33525L692.64583,463.17172L515.04434,463.17172L515.04434,405.33525"/>
			<path clip-path="url(#SVG_CP_1)" fill="none" stroke="#000000" stroke-width="0.48" stroke-miterlimit="10" stroke-linecap="round" stroke-linejoin="round" d="
				M692.64583,463.17172L692.64583,446.37275L716.16603,446.37275L716.16603,463.17172L692.64583,463.17172"/>
			<path clip-path="url(#SVG_CP_1)" fill="none" stroke="#000000" stroke-width="0.48" stroke-miterlimit="10" stroke-linecap="round" stroke-linejoin="round" d="
				M749.76631,405.33525L749.76631,441.81302L715.92603,441.81302L715.92603,405.33525L749.76631,405.33525"/>
			<path clip-path="url(#SVG_CP_1)" fill="none" stroke="#000000" stroke-width="0.48" stroke-miterlimit="10" stroke-linecap="round" stroke-linejoin="round" d="
				M715.68603,489.09014L750.00632,489.09014L750.00632,550.76637L715.68603,550.76637L715.68603,489.09014"/>
			<path clip-path="url(#SVG_CP_1)" fill="none" stroke="#000000" stroke-width="0.48" stroke-miterlimit="10" stroke-linecap="round" stroke-linejoin="round" d="
				M676.5657,489.33012L715.68603,489.33012L715.68603,550.76637L676.5657,550.76637L676.5657,489.33012"/>
			<path clip-path="url(#SVG_CP_1)" fill="none" stroke="#000000" stroke-width="0.48" stroke-miterlimit="10" stroke-linecap="round" stroke-linejoin="round" d="
				M591.60498,489.33012L676.5657,489.33012L676.5657,551.00636L591.60498,551.00636L591.60498,489.33012"/>
			<path clip-path="url(#SVG_CP_1)" fill="none" stroke="#000000" stroke-width="0.48" stroke-miterlimit="10" stroke-linecap="round" stroke-linejoin="round" d="
				M598.32504,119.75269L749.76631,119.75269L749.76631,299.26173L598.32504,299.26173L598.32504,119.75269"/>
			<path clip-path="url(#SVG_CP_1)" fill="none" stroke="#000000" stroke-width="0.48" stroke-miterlimit="10" stroke-linecap="round" stroke-linejoin="round" d="
				M598.80504,299.26173L30.96026,299.50171L30.72026,119.99267L598.56504,119.75269L598.80504,299.26173"/>
			<path clip-path="url(#SVG_CP_1)" fill="none" stroke="#000000" stroke-width="0.48" stroke-miterlimit="10" stroke-linecap="round" stroke-linejoin="round" d="
				M30.72026,146.15108L63.12053,146.15108L63.12053,172.30948L30.72026,172.30948L30.72026,146.15108"/>
			<path clip-path="url(#SVG_CP_1)" fill="none" stroke="#000000" stroke-width="0.48" stroke-miterlimit="10" stroke-linecap="round" stroke-linejoin="round" d="
				M37.20031,172.30948L55.92047,172.30948L55.92047,181.90889L37.20031,181.90889L37.20031,172.30948"/>
			<path clip-path="url(#SVG_CP_1)" fill="none" stroke="#000000" stroke-width="0.48" stroke-miterlimit="10" stroke-linecap="round" stroke-linejoin="round" d="
				M30.48026,237.34551L73.44062,237.34551L73.44062,299.50171L30.48026,299.50171L30.48026,237.34551"/>
			<path clip-path="url(#SVG_CP_1)" fill="none" stroke="#000000" stroke-width="0.48" stroke-miterlimit="10" stroke-linecap="round" stroke-linejoin="round" d="
				M73.44062,237.34551L116.40098,237.34551L116.40098,299.50171L73.44062,299.50171L73.44062,237.34551"/>
			<path clip-path="url(#SVG_CP_1)" fill="none" stroke="#000000" stroke-width="0.48" stroke-miterlimit="10" stroke-linecap="round" stroke-linejoin="round" d="
				M116.40098,237.34551L159.36134,237.34551L159.36134,299.50171L116.40098,299.50171L116.40098,237.34551"/>
			<path clip-path="url(#SVG_CP_1)" fill="none" stroke="#000000" stroke-width="0.48" stroke-miterlimit="10" stroke-linecap="round" stroke-linejoin="round" d="
				M159.36134,237.10552L202.3217,237.10552L202.3217,299.50171L159.36134,299.50171L159.36134,237.10552"/>
			<path clip-path="url(#SVG_CP_1)" fill="none" stroke="#000000" stroke-width="0.48" stroke-miterlimit="10" stroke-linecap="round" stroke-linejoin="round" d="
				M293.76247,237.34551L336.72284,237.34551L336.72284,299.7417L293.76247,299.7417L293.76247,237.34551"/>
			<path clip-path="url(#SVG_CP_1)" fill="none" stroke="#000000" stroke-width="0.48" stroke-miterlimit="10" stroke-linecap="round" stroke-linejoin="round" d="
				M250.80211,237.34551L293.76247,237.34551L293.76247,299.7417L250.80211,299.7417L250.80211,237.34551"/>
			<path clip-path="url(#SVG_CP_1)" fill="none" stroke="#000000" stroke-width="0.48" stroke-miterlimit="10" stroke-linecap="round" stroke-linejoin="round" d="
				M336.72284,237.34551L379.6832,237.34551L379.6832,299.7417L336.72284,299.7417L336.72284,237.34551"/>
			<path clip-path="url(#SVG_CP_1)" fill="none" stroke="#000000" stroke-width="0.48" stroke-miterlimit="10" stroke-linecap="round" stroke-linejoin="round" d="
				M241.20203,165.82988L241.44203,165.82988L241.68204,165.82988L241.92204,165.82988L242.16204,165.82988L242.40204,165.82988
				L242.40204,166.06986L242.64204,166.06986L242.88205,166.06986L243.12205,166.06986L243.36205,166.30985L243.60205,166.30985
				L243.84205,166.30985L243.84205,166.54983L244.08206,166.54983L244.32206,166.54983L244.32206,166.78982L244.56206,166.78982
				L244.56206,167.0298L244.80206,167.0298L244.80206,167.26979L245.04206,167.26979L245.04206,167.50977L245.28207,167.50977L245.28207,167.74976
				L245.52207,167.74976L245.52207,167.98974L245.76207,167.98974L245.76207,168.22973L246.00207,168.22973L246.00207,168.46971
				L246.00207,168.7097L246.24207,168.7097L246.24207,168.94968L246.24207,169.18967L246.48208,169.18967L246.48208,169.42966L246.48208,169.66964
				L246.48208,169.90963L246.72208,169.90963L246.72208,170.14961L246.72208,170.3896L246.72208,170.62958L246.72208,170.86957L
				246.72208,171.10955L246.72208,171.34954L246.72208,171.58952L246.72208,171.82951L246.72208,172.06949L246.72208,172.30948L
				246.72208,172.54946L246.72208,172.78945L246.48208,172.78945L246.48208,173.02944L246.48208,173.26942L246.48208,173.50941L
				246.24207,173.50941L246.24207,173.74939L246.24207,173.98938L246.00207,173.98938L246.00207,174.22936L246.00207,174.46935L
				245.76207,174.46935L245.76207,174.70933L245.52207,174.70933L245.52207,174.94932L245.28207,174.94932L245.28207,175.1893L245.04206,175.1893
				L245.04206,175.42929L244.80206,175.42929L244.80206,175.66927L244.56206,175.66927L244.56206,175.90926L244.32206,175.90926
				L244.08206,176.14925L243.84205,176.14925L243.84205,176.38923L243.60205,176.38923L243.36205,176.38923L243.36205,176.62922
				L243.12205,176.62922L242.88205,176.62922L242.64204,176.62922L242.40204,176.62922L242.40204,176.8692L242.16204,176.8692L241.92204,176.8692
				L241.68204,176.8692L241.44203,176.8692L241.20203,176.8692L240.96203,176.8692L240.72203,176.8692L240.48203,176.8692L240.24202,176.8692
				L240.00202,176.8692L240.00202,176.62922L239.76202,176.62922L239.52202,176.62922L239.28202,176.62922L239.28202,176.38923L
				239.04201,176.38923L238.80201,176.38923L238.80201,176.14925L238.56201,176.14925L238.32201,176.14925L238.32201,175.90926L
				238.08201,175.90926L237.842,175.90926L237.842,175.66927L237.602,175.66927L237.602,175.42929L237.362,175.42929L237.362,175.1893
				L237.122,175.1893L237.122,174.94932L236.882,174.94932L236.882,174.70933L236.64199,174.46935L236.64199,174.22936L236.40199,174.22936
				L236.40199,173.98938L236.40199,173.74939L236.16199,173.74939L236.16199,173.50941L236.16199,173.26942L235.92199,173.26942
				L235.92199,173.02944L235.92199,172.78945L235.92199,172.54946L235.92199,172.30948L235.68199,172.30948L235.68199,172.06949
				L235.68199,171.82951L235.68199,171.58952L235.68199,171.34954L235.68199,171.10955L235.68199,170.86957L235.68199,170.62958
				L235.68199,170.3896L235.92199,170.3896L235.92199,170.14961L235.92199,169.90963L235.92199,169.66964L235.92199,169.42966L236.16199,169.42966
				L236.16199,169.18967L236.16199,168.94968L236.40199,168.94968L236.40199,168.7097L236.40199,168.46971L236.64199,168.46971L
				236.64199,168.22973L236.882,168.22973L236.882,167.98974L236.882,167.74976L237.122,167.74976L237.122,167.50977L237.362,167.50977
				L237.362,167.26979L237.602,167.26979L237.602,167.0298L237.842,167.0298L238.08201,166.78982L238.32201,166.78982L238.32201,166.54983
				L238.56201,166.54983L238.80201,166.54983L238.80201,166.30985L239.04201,166.30985L239.28202,166.30985L239.28202,166.06986
				L239.52202,166.06986L239.76202,166.06986L240.00202,166.06986L240.00202,165.82988L240.24202,165.82988L240.48203,165.82988
				L240.72203,165.82988L240.96203,165.82988L241.20203,165.82988"/>
			<path clip-path="url(#SVG_CP_1)" fill="none" stroke="#000000" stroke-width="0.48" stroke-miterlimit="10" stroke-linecap="round" stroke-linejoin="round" d="
				M359.04302,119.75269L598.32504,119.75269L598.32504,158.15034L359.04302,158.15034L359.04302,119.75269"/>
			<path clip-path="url(#SVG_CP_1)" fill="none" stroke="#000000" stroke-width="0.48" stroke-miterlimit="10" stroke-linecap="round" stroke-linejoin="round" d="
				M431.52363,209.50721L30.72026,209.74719L30.72026,188.14851L431.52363,188.3885L431.52363,209.50721"/>
			<path clip-path="url(#SVG_CP_1)" fill="none" stroke="#000000" stroke-width="0.48" stroke-miterlimit="10" stroke-linecap="round" stroke-linejoin="round" d="
				M337.20284,149.0309L337.20284,119.75269L359.04302,119.75269L359.04302,149.0309L337.20284,149.0309"/>
			<path clip-path="url(#SVG_CP_1)" fill="none" stroke="#000000" stroke-width="0.48" stroke-miterlimit="10" stroke-linecap="round" stroke-linejoin="round" d="
				M359.04302,158.15034L359.04302,119.75269L384.24324,119.75269L384.24324,158.15034L359.04302,158.15034"/>
			<path clip-path="url(#SVG_CP_1)" fill="none" stroke="#000000" stroke-width="0.48" stroke-miterlimit="10" stroke-linecap="round" stroke-linejoin="round" d="
				M384.24324,158.15034L384.24324,119.75269L409.68345,119.75269L409.68345,158.15034L384.24324,158.15034"/>
			<path clip-path="url(#SVG_CP_1)" fill="none" stroke="#000000" stroke-width="0.48" stroke-miterlimit="10" stroke-linecap="round" stroke-linejoin="round" d="
				M598.80504,299.26173L466.08393,299.26173L466.08393,158.15034L598.56504,158.15034L598.80504,299.26173"/>
			<path clip-path="url(#SVG_CP_1)" fill="none" stroke="#000000" stroke-width="0.48" stroke-miterlimit="10" stroke-linecap="round" stroke-linejoin="round" d="
				M379.6832,237.34551L466.08393,237.34551L466.08393,299.50171L379.6832,299.50171L379.6832,237.34551"/>
		</g>
		<g id="Other">
			<clipPath id="SVG_CP_2">
				<path d="M0,611.96263L0,0L792,0L792,611.96263L0,611.96263z"/>
			</clipPath>
			<path clip-path="url(#SVG_CP_2)" fill="none" stroke="#000000" stroke-width="0.96001" stroke-miterlimit="10" stroke-linecap="round" stroke-linejoin="round" d="
				M10.08009,603.32316L10.08009,8.63947L784.32661,8.63947L784.32661,603.32316L10.08009,603.32316z"/>
		</g>
	</g>
</svg>
